<svg xmlns="http://www.w3.org/2000/svg" viewBox="0 0 560 400" fill="none">
  <rect width="560" height="400" rx="16" fill="#F8FAFC"/>
  <rect x="40" y="40" width="480" height="280" rx="12" fill="#fff" stroke="#E2E8F0" stroke-width="1"/>
  <rect x="60" y="60" width="120" height="12" rx="6" fill="#2563EB" opacity="0.2"/>
  <rect x="60" y="84" width="200" height="8" rx="4" fill="#E2E8F0"/>
  <rect x="60" y="100" width="160" height="8" rx="4" fill="#E2E8F0"/>
  <rect x="60" y="140" width="180" height="120" rx="8" fill="#EFF6FF" stroke="#BFDBFE" stroke-width="1"/>
  <rect x="260" y="140" width="240" height="56" rx="8" fill="#F8FAFC" stroke="#E2E8F0" stroke-width="1"/>
  <rect x="260" y="204" width="240" height="56" rx="8" fill="#F8FAFC" stroke="#E2E8F0" stroke-width="1"/>
  <circle cx="280" cy="168" r="12" fill="#2563EB" opacity="0.15"/>
  <circle cx="280" cy="232" r="12" fill="#2563EB" opacity="0.15"/>
  <rect x="304" y="160" width="120" height="8" rx="4" fill="#CBD5E1"/>
  <rect x="304" y="176" width="80" height="6" rx="3" fill="#E2E8F0"/>
  <rect x="304" y="224" width="120" height="8" rx="4" fill="#CBD5E1"/>
  <rect x="304" y="240" width="80" height="6" rx="3" fill="#E2E8F0"/>
  <rect x="80" y="160" width="140" height="80" rx="6" fill="#2563EB" opacity="0.1"/>
  <path d="M120 200 L140 180 L160 195 L180 170" stroke="#2563EB" stroke-width="2" stroke-linecap="round" stroke-linejoin="round" fill="none"/>
  <circle cx="120" cy="200" r="4" fill="#2563EB"/>
  <circle cx="140" cy="180" r="4" fill="#2563EB"/>
  <circle cx="160" cy="195" r="4" fill="#2563EB"/>
  <circle cx="180" cy="170" r="4" fill="#2563EB"/>
  <rect x="60" y="280" width="440" height="8" rx="4" fill="#2563EB" opacity="0.6"/>
  <rect x="60" y="296" width="320" height="8" rx="4" fill="#E2E8F0"/>
</svg>
